<svg xmlns="http://www.w3.org/2000/svg" viewBox="0 0 100 100">
  <defs>
    <linearGradient id="grad" x1="0%" y1="0%" x2="100%" y2="100%">
      <stop offset="0%" style="stop-color:#5c7cfa;stop-opacity:1" />
      <stop offset="100%" style="stop-color:#4263eb;stop-opacity:1" />
    </linearGradient>
  </defs>
  <rect width="100" height="100" rx="20" fill="url(#grad)"/>
  <path d="M50 25 C50 25, 70 30, 70 45 C70 55, 60 60, 55 60 L55 72 C55 72, 65 68, 65 58 C65 48, 55 45, 50 45 C45 45, 35 48, 35 58 C35 68, 45 72, 45 72 L45 60 C40 60, 30 55, 30 45 C30 30, 50 25, 50 25 Z" fill="white" opacity="0.95"/>
</svg>
